<svg width="1440" height="979" viewBox="0 0 1440 979" fill="none" xmlns="http://www.w3.org/2000/svg">
<g clip-path="url(#clip0)">
<rect width="1440" height="979" fill="#063A7C"/>
<path d="M1285.88 436.275C1320.63 462.64 1320.71 514.873 1286.02 541.332L757.205 944.736C713.799 977.848 651.249 946.945 651.175 892.351L650.084 86.978C650.01 32.3837 712.475 1.31091 755.971 34.3055L1285.88 436.275Z" fill="#204B82"/>
<path d="M147.053 542.239C112.332 515.827 112.332 463.594 147.053 437.182L676.414 34.4948C719.866 1.44129 782.373 32.4292 782.373 87.0237V892.397C782.373 946.992 719.866 977.98 676.414 944.926L147.053 542.239Z" fill="#204B82"/>
<circle cx="1384" cy="33" r="81" fill="#204B82"/>
</g>
<defs>
<clipPath id="clip0">
<rect width="1440" height="979" fill="white"/>
</clipPath>
</defs>
</svg>
